<?xml version="1.0" standalone="no"?>
<!DOCTYPE svg PUBLIC "-//W3C//DTD SVG 20010904//EN"
 "http://www.w3.org/TR/2001/REC-SVG-20010904/DTD/svg10.dtd">
<svg version="1.0" xmlns="http://www.w3.org/2000/svg"
 width="300.000000pt" height="198.000000pt" viewBox="0 0 300.000000 198.000000"
 preserveAspectRatio="xMidYMid meet">
<metadata>
Created by potrace 1.10, written by Peter Selinger 2001-2011
</metadata>
<rect width="100%" height="100%" fill="rgb(255, 102, 0)" />
<g transform="translate(0.000000,198.000000) scale(0.100000,-0.100000)"
fill="#000000"  stroke="none">
<path d="M949 1756 c-3 -4 -154 -6 -335 -6 -358 -1 -392 -5 -426 -52 -32 -46
-35 -116 -13 -318 21 -196 25 -483 10 -805 -12 -257 -5 -297 55 -328 31 -15
56 -17 230 -11 337 10 606 6 770 -11 121 -13 300 -18 807 -22 358 -3 663 -3
677 1 30 7 70 48 92 94 14 29 14 47 4 135 -6 59 -12 312 -14 597 -3 538 -6
562 -62 637 -33 43 -68 50 -244 51 -80 1 -226 9 -325 18 -181 16 -1213 33
-1226 20z m1276 -40 c110 -8 253 -15 318 -16 142 0 176 -11 202 -66 22 -45 21
-41 34 -119 9 -51 15 -500 9 -660 -1 -27 3 -160 10 -294 l13 -244 -27 -39
c-15 -22 -37 -44 -48 -50 -31 -17 -1253 -11 -1416 7 -204 21 -378 27 -696 21
-260 -5 -358 -4 -377 5 -45 20 -52 57 -47 244 9 351 4 751 -10 895 -21 225
-15 285 34 313 49 28 1650 31 2001 3z"/>
<path d="M298 1653 c-10 -3 -18 -9 -18 -14 0 -6 -4 -7 -10 -4 -14 9 -12 -8 3
-24 10 -11 7 -12 -13 -6 l-25 7 24 -26 24 -26 -24 -1 -24 0 23 -16 c26 -19 29
-33 5 -33 -13 0 -14 -3 -6 -8 7 -4 14 -18 16 -30 2 -12 6 -25 10 -28 13 -14 7
-23 -10 -17 -17 6 -17 5 0 -14 9 -11 17 -22 17 -26 0 -3 -8 -4 -17 0 -16 6
-16 4 1 -15 13 -15 15 -22 6 -22 -9 0 -8 -6 5 -20 17 -19 17 -20 0 -20 -18 0
-18 -1 1 -15 16 -13 17 -16 4 -25 -13 -9 -13 -11 0 -19 8 -6 11 -13 7 -17 -4
-4 -2 -13 4 -21 9 -10 8 -13 -1 -13 -10 0 -10 -3 0 -15 10 -12 10 -15 0 -15
-10 0 -10 -3 0 -15 10 -12 10 -15 0 -15 -10 0 -10 -3 0 -15 10 -12 10 -15 -1
-15 -10 0 -10 -3 -1 -12 18 -18 15 -28 -5 -21 -16 6 -15 3 2 -17 17 -20 18
-23 3 -17 -10 4 -18 3 -18 0 0 -4 8 -16 18 -27 16 -20 16 -20 0 -7 -21 16 -24
-1 -4 -18 10 -8 16 -9 21 -2 8 14 9 177 1 261 -4 36 -9 97 -11 135 -4 62 -9
99 -15 115 -5 13 -1 123 5 128 5 5 157 4 161 -1 1 -1 9 -86 18 -189 19 -222
21 -689 5 -918 -6 -85 -14 -158 -18 -161 -3 -4 -41 -10 -83 -13 -60 -5 -78 -4
-79 6 -3 37 7 236 16 308 11 92 13 160 3 166 -5 3 -4 11 2 19 6 7 7 15 3 18
-5 3 -8 30 -7 59 2 47 0 54 -18 55 -19 2 -19 1 -4 -16 20 -22 21 -38 1 -21 -8
7 -15 8 -15 2 0 -5 7 -15 15 -22 19 -16 19 -34 0 -26 -20 7 -19 -3 2 -26 15
-17 15 -18 0 -18 -22 0 -21 -9 1 -26 11 -9 13 -13 4 -14 -8 0 -10 -5 -6 -12
12 -19 12 -48 0 -48 -6 0 -5 -5 2 -12 18 -18 15 -28 -5 -21 -16 6 -15 3 2 -17
17 -20 18 -23 3 -17 -21 7 -24 -3 -6 -21 9 -9 9 -12 0 -12 -10 0 -10 -5 -2
-20 9 -16 8 -20 -6 -20 -16 0 -16 -2 1 -20 17 -19 17 -20 0 -20 -17 0 -17 -1
0 -20 12 -13 14 -20 5 -20 -10 0 -10 -3 0 -15 10 -12 10 -15 0 -15 -7 0 -10
-6 -7 -14 3 -8 1 -17 -6 -19 -9 -3 -9 -8 1 -20 11 -13 10 -17 -5 -26 -12 -7
-13 -10 -4 -11 9 0 12 -8 9 -24 -6 -31 15 -58 44 -58 13 1 169 4 348 7 268 6
359 4 515 -10 137 -13 321 -19 655 -21 256 -2 549 -5 651 -7 181 -2 186 -2
182 18 -4 17 -2 17 16 -5 24 -30 26 -22 7 25 -17 39 -5 47 26 18 10 -9 18 -11
18 -6 0 6 -7 16 -16 23 -8 8 -20 22 -25 32 -10 19 -9 19 15 3 32 -21 35 -4 4
19 -13 9 -17 14 -10 11 17 -9 15 10 -3 25 -22 18 -18 29 8 23 22 -6 21 -6 -3
16 -17 16 -20 21 -7 17 9 -3 17 -2 17 1 0 4 -8 16 -17 27 -17 20 -17 20 0 7
21 -16 23 1 2 19 -22 18 -18 32 8 25 l22 -6 -22 17 c-27 20 -30 36 -5 27 15
-6 15 -5 3 10 -10 13 -11 17 -1 17 9 0 8 5 -3 18 -21 23 -22 39 -2 22 8 -7 15
-8 15 -2 0 5 -7 15 -15 22 -8 7 -15 17 -15 22 0 6 7 8 15 4 20 -7 19 4 -2 21
-13 10 -15 16 -5 19 6 3 9 11 5 17 -13 20 -12 88 1 80 6 -3 6 0 -1 8 -15 16
-17 33 -3 24 14 -9 12 9 -2 24 -11 10 -9 11 7 5 20 -7 20 -7 1 15 -20 22 -20
22 0 15 18 -7 18 -7 2 13 -20 22 -25 44 -6 25 19 -19 33 -14 16 6 -29 34 -32
45 -9 37 27 -8 27 2 -1 26 -21 17 -21 18 -4 19 15 0 16 3 6 15 -7 8 -9 15 -5
15 4 0 1 8 -6 17 -12 15 -12 16 4 10 21 -8 22 6 2 23 -22 18 -18 29 8 23 21
-5 21 -4 -3 16 -22 18 -23 21 -6 21 14 0 16 3 7 13 -6 8 -8 17 -4 20 3 4 0 14
-8 24 -12 15 -12 16 4 10 9 -3 17 -2 17 4 0 5 -7 12 -15 15 -21 8 -19 24 3 24
15 1 15 2 -2 11 -15 9 -16 13 -5 20 12 8 12 11 -1 20 -12 8 -12 12 -2 16 10 4
10 8 1 20 -10 11 -10 16 0 23 10 6 10 9 1 15 -9 6 -9 10 1 16 12 8 12 10 0 18
-7 5 -10 14 -7 20 4 6 2 11 -4 11 -7 0 -10 7 -6 15 3 8 1 15 -4 15 -6 0 -10 6
-10 14 0 7 -7 19 -16 27 -16 13 -63 19 -69 8 -5 -7 -86 -4 -460 23 -280 19
-349 20 -1015 13 -784 -8 -747 -8 -775 -2 -11 2 -28 2 -37 0z m1892 -33 c157
-11 297 -20 312 -20 22 0 29 -7 43 -43 14 -38 17 -111 18 -623 2 -440 -1 -584
-10 -600 l-12 -21 -538 4 c-382 3 -596 9 -738 20 -138 12 -292 17 -493 15
l-294 -2 6 58 c34 307 32 807 -4 1131 -5 47 -7 87 -5 90 9 8 850 19 1145 15
157 -2 413 -13 570 -24z m441 -20 c20 0 42 -55 46 -113 2 -34 3 -172 2 -307
-1 -372 -1 -481 4 -528 2 -24 0 -45 -5 -48 -5 -3 -6 -9 -3 -14 10 -17 7 -196
-4 -225 -6 -16 -14 -36 -16 -42 -3 -8 -22 -13 -49 -13 l-45 0 7 33 c4 17 7
293 7 612 -1 528 -2 583 -18 612 l-17 32 28 4 c15 2 33 2 40 0 8 -1 18 -3 23
-3z"/>
<path d="M1642 1555 c-121 -22 -327 -91 -342 -115 -3 -5 -47 11 -98 36 -108
52 -135 58 -42 9 84 -44 70 -45 -18 -2 l-67 33 -60 -27 c-84 -39 -93 -35 -15
6 39 20 73 32 85 28 16 -4 18 -3 8 8 -10 10 -48 -5 -198 -76 -102 -49 -185
-92 -185 -96 0 -11 260 -142 268 -135 3 3 -1 6 -8 6 -7 0 -11 3 -8 6 3 3 29
-6 57 -20 l51 -26 50 25 c27 14 53 25 57 25 4 -1 -13 -12 -39 -26 -27 -13 -48
-27 -48 -29 0 -6 261 124 310 154 l32 19 -30 16 c-40 20 -56 20 -19 0 16 -9
27 -18 24 -20 -2 -2 -31 10 -65 28 -33 18 -59 34 -57 36 2 2 17 -4 35 -13 18
-9 34 -14 37 -11 4 3 -9 12 -28 20 l-34 14 49 21 c78 34 195 70 286 88 125 26
359 23 461 -5 149 -40 259 -115 304 -207 27 -56 32 -169 11 -233 -10 -28 -35
-76 -57 -107 -38 -55 -39 -58 -24 -82 27 -41 77 -51 138 -28 14 6 17 2 17 -24
0 -17 7 -49 16 -71 15 -37 15 -43 -1 -76 -10 -20 -20 -54 -22 -74 -5 -36 -7
-38 -52 -43 -35 -4 -52 -12 -71 -35 l-25 -29 -30 18 c-46 29 -91 25 -128 -12
-18 -18 -33 -27 -35 -20 -5 16 -56 41 -82 41 -12 0 -34 -13 -50 -30 l-27 -29
-11 25 c-15 32 -72 59 -107 50 -16 -4 -41 -21 -56 -37 -18 -19 -30 -26 -34
-18 -4 6 -23 17 -42 25 -30 13 -38 13 -68 -1 -18 -9 -36 -23 -39 -32 -5 -11
-14 -6 -40 21 -44 47 -84 49 -119 6 -14 -17 -28 -30 -30 -30 -3 0 -7 13 -10
29 -6 27 -11 30 -54 35 -250 29 -399 101 -467 226 -57 105 -44 222 39 346 25
37 44 67 43 68 -30 11 -298 151 -298 156 0 7 379 190 393 190 4 0 53 -22 108
-50 107 -54 109 -54 109 -42 0 5 -30 23 -67 41 -38 18 -79 39 -93 46 -50 29
-64 24 -338 -107 -145 -69 -151 -83 -59 -128 34 -17 77 -39 95 -49 18 -10 55
-28 82 -40 l50 -22 -34 -49 c-74 -107 -96 -226 -61 -330 46 -137 231 -244 465
-268 68 -6 75 -9 80 -32 8 -36 33 -36 63 0 34 40 59 38 94 -6 l30 -37 46 28
c39 22 50 25 62 15 8 -7 15 -9 15 -6 0 4 13 -1 30 -10 29 -18 30 -18 60 11 47
45 87 42 137 -11 24 -26 46 -23 74 8 19 20 70 16 90 -8 16 -20 33 -17 60 10
24 24 99 45 99 28 0 -6 12 -18 27 -27 26 -18 27 -18 55 14 21 23 40 33 73 38
51 6 76 31 67 65 -3 12 5 39 19 64 22 42 23 44 6 79 -9 20 -17 48 -17 64 0 37
-34 69 -54 52 -15 -12 -56 -11 -88 3 -29 13 -30 37 -3 72 55 73 80 143 80 230
0 70 -4 88 -30 139 -55 107 -176 184 -348 219 -93 19 -311 20 -415 1z m-482
-99 c30 -8 58 -12 62 -10 4 3 20 -2 35 -11 16 -9 19 -14 9 -10 -16 5 -14 0 7
-19 29 -27 36 -73 15 -94 -19 -19 -5 -14 46 14 26 15 50 24 53 20 3 -3 -38
-27 -93 -53 l-99 -48 -120 -1 c-135 -1 -188 15 -219 66 -23 39 -20 59 12 93
l27 29 -74 -37 -75 -37 57 -31 c32 -16 55 -32 53 -34 -6 -6 -126 58 -126 67 0
12 181 90 193 83 6 -4 7 -1 2 7 -5 9 -2 11 11 7 11 -4 35 -2 54 2 54 14 110
12 170 -3z m172 -108 c-7 -7 -12 -8 -12 -2 0 6 3 14 7 17 3 4 9 5 12 2 2 -3
-1 -11 -7 -17z"/>
<path d="M923 1428 c-13 -6 -23 -17 -23 -25 0 -17 37 -17 43 0 2 6 8 8 13 4 5
-5 -4 -20 -21 -34 -16 -14 -30 -31 -31 -37 -1 -6 -5 -19 -9 -28 -4 -11 -3 -18
4 -18 6 0 11 3 11 8 0 4 4 13 8 20 7 10 19 7 55 -14 26 -14 47 -22 47 -17 0 4
11 13 25 20 21 9 25 9 25 -4 0 -12 3 -13 14 -4 8 6 20 10 27 9 8 -2 14 5 14
17 0 11 4 26 8 33 5 7 4 12 -3 12 -6 0 -16 -11 -22 -25 -6 -14 -15 -25 -20
-25 -11 0 -10 17 2 25 11 7 14 45 4 45 -18 0 -74 -44 -74 -57 0 -10 -5 -13
-17 -8 -10 4 -26 10 -35 12 -25 7 -22 18 5 20 44 4 67 14 78 35 10 18 8 24 -7
35 -21 15 -90 16 -121 1z m117 -27 c0 -8 -52 -31 -72 -31 -5 0 -4 9 2 20 11
20 70 30 70 11z m25 -61 c-10 -11 -23 -20 -28 -20 -6 0 -2 9 8 20 10 11 23 20
28 20 6 0 2 -9 -8 -20z"/>
<path d="M1149 1353 c-13 -15 -16 -21 -6 -14 19 15 24 2 5 -17 -6 -6 -8 -15
-4 -19 9 -9 38 26 31 38 -3 4 -1 10 5 14 12 7 13 25 2 25 -5 0 -19 -12 -33
-27z"/>
<path d="M1200 1365 c-7 -9 -15 -27 -16 -40 -2 -21 1 -23 34 -21 57 4 69 13
64 46 -5 32 -20 38 -40 18 -10 -10 -14 -10 -21 0 -6 10 -11 10 -21 -3z m60
-25 c0 -11 -7 -20 -15 -20 -13 0 -14 4 -5 20 6 11 13 20 15 20 3 0 5 -9 5 -20z
m-44 -17 c-10 -10 -19 5 -10 18 6 11 8 11 12 0 2 -7 1 -15 -2 -18z"/>
<path d="M1671 1504 c-96 -15 -311 -79 -311 -92 0 -4 24 -17 53 -30 l52 -23
-95 -50 c-256 -136 -293 -152 -324 -141 -35 14 -50 -1 -98 -97 -100 -198 8
-377 266 -444 l56 -15 0 26 c0 15 -7 38 -15 52 -8 14 -17 30 -20 36 -3 6 5 28
19 49 19 28 26 51 26 87 0 49 0 49 22 34 52 -37 146 -9 168 50 l9 23 32 -30
c52 -49 105 -50 135 -4 l15 23 29 -29 c38 -39 73 -38 115 4 l32 32 25 -27 c32
-35 71 -36 103 -3 l25 24 25 -24 c34 -34 78 -33 115 3 l28 28 16 -33 c9 -18
22 -33 29 -33 17 0 78 64 110 116 30 48 57 134 57 179 0 132 -128 256 -312
300 -95 23 -276 27 -387 9z m319 -15 c167 -27 288 -97 335 -194 24 -48 27 -64
23 -118 -6 -74 -42 -154 -99 -218 -31 -36 -40 -41 -48 -29 -5 8 -8 17 -6 21 6
8 -36 28 -57 27 -9 -1 -15 -5 -12 -9 2 -4 -6 -15 -18 -23 -26 -18 -65 -12 -91
15 -19 20 -45 16 -64 -12 -18 -24 -55 -18 -94 16 l-33 27 -25 -30 c-39 -46
-63 -48 -105 -12 l-35 31 -31 -30 c-36 -34 -58 -31 -113 15 l-30 25 -44 -45
c-48 -50 -70 -56 -127 -32 -18 8 -38 11 -44 7 -6 -3 -12 -29 -13 -56 -3 -49
-21 -99 -40 -110 -14 -9 -11 -41 5 -54 19 -16 27 -61 11 -61 -42 0 -171 61
-221 104 -107 92 -113 250 -13 385 14 19 27 27 33 22 16 -12 54 -20 58 -12 2
3 83 47 181 96 98 49 183 95 188 102 16 18 2 48 -28 62 -35 16 -26 21 98 55
164 45 324 57 459 35z"/>
<path d="M980 1215 c0 -6 87 -45 98 -45 9 1 -80 49 -90 50 -5 0 -8 -2 -8 -5z"/>
<path d="M1457 903 c-32 -37 -86 -52 -128 -36 -26 10 -27 9 -32 -30 -3 -22
-15 -53 -27 -69 -19 -26 -19 -30 -5 -57 8 -17 15 -46 15 -65 0 -34 1 -35 24
-24 33 14 93 -16 116 -59 l16 -30 28 23 c15 13 36 24 47 24 27 0 75 -26 82
-45 6 -13 11 -12 39 5 41 25 89 26 118 2 22 -18 23 -17 50 10 23 23 37 28 75
28 38 0 52 -5 76 -29 17 -17 32 -25 35 -19 4 5 22 17 41 25 32 13 38 12 76 -6
l41 -21 22 21 c31 29 82 34 125 11 36 -18 37 -18 48 0 15 24 78 51 103 45 15
-4 18 1 18 31 0 21 9 51 20 69 19 32 19 33 0 75 -11 24 -20 50 -20 58 0 12
-11 14 -50 12 -45 -4 -53 -1 -81 27 -29 29 -33 31 -49 16 -34 -30 -120 -8
-120 32 0 13 -5 12 -26 -8 -32 -30 -93 -32 -123 -5 -20 19 -22 19 -41 1 -28
-26 -84 -24 -112 2 l-23 22 -28 -25 c-35 -30 -85 -32 -119 -4 -25 19 -26 19
-43 0 -25 -28 -83 -26 -126 3 l-34 23 -28 -33z m48 -13 c6 -9 -8 -14 -27 -11
-5 0 -8 -3 -8 -7 0 -5 -12 -14 -27 -21 -26 -10 -25 -9 7 18 38 33 46 36 55 21z
m665 -5 c10 -12 7 -14 -19 -12 -32 2 -40 12 -18 20 20 9 24 8 37 -8z m-260
-45 c11 0 35 7 52 16 23 12 37 13 57 6 42 -17 228 -25 266 -12 29 10 36 9 54
-9 11 -11 35 -23 53 -26 25 -5 37 -15 50 -42 15 -32 15 -39 2 -57 -7 -11 -14
-28 -14 -37 0 -10 -14 -20 -39 -27 -21 -7 -50 -24 -64 -38 -21 -21 -29 -23
-46 -15 -31 17 -83 13 -119 -9 l-33 -20 -26 20 c-29 23 -69 26 -108 8 -21 -10
-32 -8 -64 10 -21 12 -51 22 -65 22 -30 0 -86 -26 -86 -39 0 -5 -18 1 -41 12
-36 18 -46 19 -92 8 -43 -11 -58 -10 -86 2 -35 15 -83 9 -104 -12 -6 -6 -17 0
-31 15 -11 13 -33 25 -48 26 -23 2 -28 7 -28 29 0 15 -6 34 -14 41 -11 12 -11
17 0 33 8 10 14 33 14 49 0 31 0 31 54 31 39 0 62 6 83 21 24 18 31 19 53 7
33 -17 55 -16 91 2 21 12 34 13 48 5 28 -14 101 -12 131 4 22 13 28 12 51 -5
15 -10 37 -19 49 -19z m-582 -27 c0 -21 -7 -50 -16 -65 -15 -25 -15 -29 2 -47
10 -11 16 -27 12 -36 -8 -23 -21 -12 -35 33 -11 33 -11 43 3 70 9 17 16 42 16
57 0 14 4 25 9 25 5 0 9 -17 9 -37z m1107 -173 c-3 -5 -12 -10 -18 -10 -7 0
-6 4 3 10 19 12 23 12 15 0z m-789 -66 c-21 -7 -43 -11 -50 -7 -6 5 1 10 19
14 53 12 71 8 31 -7z m404 12 c0 -2 -9 -6 -20 -9 -11 -3 -18 -1 -14 4 5 9 34
13 34 5z m-303 -12 c-3 -3 -12 -4 -19 -1 -8 3 -5 6 6 6 11 1 17 -2 13 -5z"/>
<path d="M1452 811 c-65 -11 -90 -62 -60 -126 13 -28 34 -36 88 -32 28 2 36 7
38 25 4 27 22 30 22 3 0 -17 18 -31 41 -31 5 0 9 9 9 20 0 11 -4 20 -10 20 -5
0 -10 -6 -10 -12 0 -7 -6 -2 -13 12 -16 31 -41 33 -45 3 -2 -13 -10 -23 -18
-23 -11 0 -13 13 -9 63 l5 62 -13 -44 c-14 -48 -33 -63 -44 -36 -4 11 1 23 14
34 11 9 23 24 26 34 10 27 27 20 27 -12 0 -33 20 -45 46 -27 11 9 15 21 11 35
-3 14 -1 21 6 18 7 -2 13 -25 15 -50 2 -26 7 -47 13 -47 5 0 9 -7 9 -15 0 -8
9 -19 20 -25 17 -9 25 -6 50 19 17 16 30 35 30 42 0 8 -13 -1 -29 -19 -18 -19
-36 -30 -44 -26 -20 7 -36 50 -35 92 2 40 -13 56 -42 47 -15 -5 -19 -12 -15
-23 11 -30 10 -36 -8 -40 -14 -3 -17 2 -15 29 3 37 -1 39 -60 30z m-16 -50
c-28 -31 -13 -87 20 -74 8 3 14 0 14 -5 0 -20 -21 -24 -45 -8 -34 22 -35 88
-3 111 28 19 37 2 14 -24z"/>
<path d="M1623 808 c-13 -6 -23 -15 -23 -20 0 -11 7 -10 30 4 17 11 25 10 48
-2 15 -9 27 -25 27 -35 1 -41 17 -86 35 -95 33 -18 60 -12 60 12 l0 22 20 -22
c17 -18 24 -20 44 -11 13 6 33 27 44 47 l22 37 0 -53 c0 -52 1 -53 28 -50 20
2 26 8 24 22 -3 17 -1 18 11 8 8 -7 22 -10 31 -6 9 3 16 1 16 -5 0 -18 38 -13
49 7 10 16 12 16 24 0 11 -14 16 -15 27 -5 10 9 13 9 17 0 3 -7 13 -13 24 -13
14 0 19 7 19 25 0 14 5 25 10 25 6 0 10 -5 10 -11 0 -8 4 -8 14 0 12 10 15 8
18 -11 2 -13 11 -24 21 -26 13 -3 18 1 15 13 -1 9 -7 16 -13 16 -5 0 -14 10
-18 21 -5 16 -11 18 -19 10 -6 -6 -17 -8 -25 -5 -9 4 -16 -2 -20 -16 -9 -36
-24 -23 -17 17 7 44 12 75 14 82 1 3 10 -13 20 -35 l18 -40 12 33 c7 17 16 32
20 32 10 0 20 -26 20 -53 0 -12 10 -35 23 -51 21 -25 26 -27 46 -17 47 26 77
111 49 139 -21 21 -85 15 -102 -10 -13 -18 -16 -19 -16 -5 0 29 -30 19 -45
-15 l-14 -33 -1 38 c0 33 -3 37 -25 37 -24 0 -25 -3 -25 -55 0 -72 -14 -70
-26 3 -8 48 -13 58 -31 60 -25 4 -35 -12 -54 -86 l-13 -53 -17 23 c-10 12 -14
27 -10 33 19 25 20 46 1 65 -27 27 -77 27 -85 -1 -6 -19 -8 -19 -19 -3 -19 26
-75 23 -98 -5 -18 -23 -18 -23 -18 -2 0 28 -44 29 -67 2 -16 -19 -17 -19 -32
-1 -21 24 -51 31 -78 18z m374 -15 c10 -10 13 -14 6 -9 -21 14 -43 -1 -43 -29
0 -20 4 -26 18 -23 10 2 22 -6 30 -21 14 -27 8 -41 -10 -23 -18 18 -28 15 -28
-8 0 -11 -4 -20 -9 -20 -14 0 -24 106 -11 129 13 26 22 26 47 4z m-97 -11 c22
-18 22 -19 6 -50 -9 -17 -28 -39 -42 -48 -23 -16 -26 -16 -39 2 -19 26 -13 84
10 100 25 18 38 18 65 -4z m230 -24 c6 -24 14 -51 17 -61 4 -14 0 -18 -14 -15
-10 2 -17 10 -15 16 1 7 -2 12 -8 12 -5 0 -10 8 -10 18 0 14 2 15 10 2 8 -12
10 -9 10 13 0 15 -4 27 -9 27 -11 0 -24 -47 -17 -59 3 -5 -3 -16 -14 -26 -24
-21 -24 -15 -5 48 25 82 39 89 55 25z m259 20 c10 -26 -5 -63 -39 -93 l-22
-20 -19 24 c-10 13 -19 34 -19 47 0 54 81 88 99 42z m-609 6 c0 -3 -9 -17 -19
-31 -16 -20 -18 -29 -9 -48 6 -13 18 -26 27 -28 11 -3 9 -5 -5 -6 -42 -2 -69
66 -39 99 17 19 45 27 45 14z m210 -34 c-18 -11 -24 -6 -16 16 5 14 9 15 19 5
9 -9 9 -14 -3 -21z m-198 -42 c-6 -6 -15 -7 -21 -4 -17 11 -13 34 7 45 13 8
18 6 20 -11 2 -11 -1 -25 -6 -30z"/>
<path d="M1842 760 c-16 -26 -4 -52 22 -48 28 4 34 43 9 57 -15 7 -22 5 -31
-9z m31 -25 c-3 -8 -9 -15 -14 -15 -10 0 -12 24 -3 33 11 11 24 -3 17 -18z"/>
<path d="M2324 756 c-9 -24 4 -48 23 -44 12 2 18 12 18 28 0 29 -32 41 -41 16z
m28 -28 c-15 -15 -26 -4 -18 18 5 13 9 15 18 6 9 -9 9 -15 0 -24z"/>
<path d="M1625 750 c-7 -24 1 -40 20 -40 17 0 34 30 28 48 -7 19 -41 14 -48
-8z m35 -4 c0 -8 -4 -17 -9 -21 -12 -7 -24 12 -16 25 9 15 25 12 25 -4z"/>
<path d="M1320 610 c0 -6 7 -10 15 -10 8 0 15 2 15 4 0 2 -7 6 -15 10 -8 3
-15 1 -15 -4z"/>
</g>
</svg>
