<?xml version="1.0" encoding="UTF-8" standalone="no"?>
<!-- Created with Inkscape (http://www.inkscape.org/) -->

<svg
   version="1.1"
   id="svg2"
   width="566.93335"
   height="566.93335"
   viewBox="0 0 566.93335 566.93335"
   sodipodi:docname="a8b25a1d-8ef7-4821-9a94-1f9289e6f4c1.eps"
   xmlns:inkscape="http://www.inkscape.org/namespaces/inkscape"
   xmlns:sodipodi="http://sodipodi.sourceforge.net/DTD/sodipodi-0.dtd"
   xmlns="http://www.w3.org/2000/svg"
   xmlns:svg="http://www.w3.org/2000/svg">
  <defs
     id="defs6" />
  <sodipodi:namedview
     id="namedview4"
     pagecolor="#ffffff"
     bordercolor="#000000"
     borderopacity="0.25"
     inkscape:showpageshadow="2"
     inkscape:pageopacity="0.0"
     inkscape:pagecheckerboard="0"
     inkscape:deskcolor="#d1d1d1" />
  <g
     id="g8"
     inkscape:groupmode="layer"
     inkscape:label="ink_ext_XXXXXX"
     transform="matrix(1.3333333,0,0,-1.3333333,0,566.93333)">
    <g
       id="g10"
       transform="scale(0.1)">
      <path
         d="m 2137.76,3447.32 c 30.27,-117.03 118.65,-227.35 242.64,-274.32 119.34,-45.21 263.38,-33.08 371.15,31.33 7.09,4.24 16.21,2.52 21.04,-4 43.57,-58.82 103.51,-107.38 175.43,-134.63 78.23,-29.64 167.08,-34.63 249.36,-16.42 11.31,2.51 21.22,-7.28 18.29,-18.03 -17.8,-65.34 -19.12,-134.57 -2.42,-199.13 30.28,-117.03 118.65,-227.35 242.65,-274.32 69.99,-26.51 148.47,-33.3 223.15,-21.39 -0.01,0 -0.02,0 -0.03,0 -176.14,25.56 -262.98,101.74 -329.87,174.68 -66.9,72.95 -104.78,171.8 -103.77,270.78 0.38,37.03 -0.32,84.69 -35.07,97.51 -14.31,5.29 -30.15,2.17 -45.28,0.17 -77.5,-10.23 -158.82,12.56 -219.73,61.58 -61.29,49.32 -128.67,149.75 -179.74,165.45 -25.26,7.77 -85.64,-36.8 -124.3,-45.79 -135.76,-31.58 -288.49,-0.57 -390.22,94.71 -83.65,78.35 -125.55,201.27 -104.37,312.41 -23.79,-71.48 -27.46,-148.91 -8.91,-220.59"
         style="fill:#b96a3f;fill-opacity:1;fill-rule:nonzero;stroke:none"
         id="path12" />
      <path
         d="m 3732.17,2533.65 c -2.54,7.46 -10.76,11.56 -18.7,9.64 -11.35,-2.75 -22.84,-5.04 -34.42,-6.88 -74.68,-11.91 -153.16,-5.12 -223.15,21.39 -124,46.97 -212.37,157.29 -242.65,274.32 -16.7,64.56 -15.38,133.79 2.42,199.13 2.93,10.75 -6.98,20.54 -18.29,18.03 -82.28,-18.21 -171.13,-13.22 -249.36,16.42 -71.92,27.25 -131.86,75.81 -175.43,134.63 -4.83,6.52 -13.95,8.24 -21.04,4 -107.77,-64.41 -251.81,-76.54 -371.15,-31.33 -123.99,46.97 -212.37,157.29 -242.64,274.32 -18.55,71.68 -14.88,149.11 8.91,220.59 8.04,24.18 18.37,47.67 30.94,70.03 5.28,9.4 -1.26,20.97 -12.38,21.71 -193.22,12.96 -390.29,-6.86 -582.4,-63.74 2.72,-3.11 5.49,-6.17 8.29,-9.18 19.33,-20.7 41.06,-40.41 52.1,-66.5 10.11,-23.9 9.89,-52.07 -0.98,-75.59 17.73,-22.61 6.95,-47.09 -21.7,-63.48 -24.06,-13.75 -60.65,-22.93 -97.09,-24.66 -39.23,-1.86 -82.73,4.38 -116.65,17.18 -19.36,7.31 -35.83,17.21 -45.71,28.62 -10.65,12.28 -11.86,25.62 -7.35,38.06 -15.59,12.77 -27.38,29.05 -30.7,50.96 -0.12,0.78 -0.22,1.55 -0.32,2.33 -351.65,-175.33 -607.286,-467.41 -753.782,-802.75 17.484,-1.92 35.257,-2.17 52.683,-1.27 26.672,1.39 54.082,5.1 79.609,-2.76 24.622,-7.59 45.711,-26.31 55.532,-50.12 1.613,-3.91 2.91,-7.92 3.926,-12 15.46,-10.41 21.414,-30.96 17.398,-55.49 -4.555,-27.81 -20.969,-61.51 -43.277,-89.65 -24.016,-30.29 -57.352,-57.82 -89.758,-73.47 -18.488,-8.93 -37.203,-13.83 -52.824,-12.78 -18.657,1.26 -30.825,12 -37.641,26.57 -1.344,2.87 -2.539,5.96 -3.551,9.23 -7.871,1.55 -15.648,4.46 -23.23,9.09 -16.481,10.07 -27.239,26.34 -34.41,43.94 -83.106,-285.91 -91.559,-590.77 -18.168,-874.44 20.168,-77.99 46.414,-155.27 78.363,-230.93 1.094,26.5 0.883,53.67 11.183,78.01 9.754,23.02 29.09,41.9 52.411,50.81 2.89,12.23 9.355,20.91 17.918,26.65 -5.524,18.38 -10.676,36.81 -15.457,55.29 -62.79,242.7 -59.883,502.38 3.246,748.88 1.839,-78.73 9.382,-157.68 23.226,-236.46 63.512,-361.46 260.813,-689.17 533.983,-931.58 228.46,-202.75 506.13,-354.701 804.33,-416.6 -8.18,20.68 -7.82,44.739 1.66,64.871 0.42,0.899 0.86,1.778 1.32,2.661 -1.12,1.738 -2.15,3.507 -3.1,5.289 -14.46,27.25 0.17,52.621 31.3,66.418 25.75,11.431 62.94,16.171 98.7,12.921 38.5,-3.5 79.79,-16.3 110.64,-34.832 17.6,-10.578 31.95,-23.546 39.63,-37.187 8.51,-15.121 7.12,-30.031 0.13,-43.039 0.47,-1.684 0.87,-3.402 1.21,-5.172 4.21,-21.789 -3.56,-43.512 -14.47,-62.172 19.43,-0.359 38.92,-0.308 58.45,0.152 416.31,9.84 831.64,209.58 1102.06,526.31 116.81,136.83 200.31,290.65 259.71,453.93 -12.29,-138.71 -44.66,-275.04 -98.37,-404.61 6.1,1.07 12.27,1.7 18.44,1.86 22.41,0.56 44.82,-5.11 64.16,-18.15 16.31,-11 27.48,-27.02 33.32,-44.97 172.48,372.62 178.08,801.97 42.95,1197.55"
         style="fill:#ce8950;fill-opacity:1;fill-rule:nonzero;stroke:none"
         id="path14" />
      <path
         d="m 2536.54,495.48 c -5.84,8.52 -10.3,18.051 -13.51,27.911 -3.49,10.699 -5.95,22.57 -6.54,34.398 -315.98,-67.789 -656.07,-47.551 -955.94,66.051 -77.06,29.191 -150.56,64.691 -220.17,105.59 -2.28,-5.239 -5.01,-10.321 -8.17,-15.141 -15.91,-24.289 -42.31,-43.98 -69.97,-52.687 -0.85,-0.274 -1.72,-0.532 -2.58,-0.782 77.92,-46.218 160.35,-86.242 246.87,-119.019 C 1833.35,418 2203.75,395.359 2548.42,468.16 c -4.5,7.379 -8.06,15.391 -10.74,23.629 -0.39,1.223 -0.78,2.449 -1.14,3.691"
         style="fill:#ce8950;fill-opacity:1;fill-rule:nonzero;stroke:none"
         id="path16" />
      <path
         d="m 3527.61,1162.76 c -18,11.62 -29.71,30.33 -36.24,50.4 -0.39,1.21 -0.77,2.43 -1.15,3.67 -1.56,2.28 -3.01,4.63 -4.38,7.03 -102.05,-169.88 -246.31,-322.891 -436.19,-447.309 -97.72,-64.012 -204.13,-116.352 -315.94,-156.711 1.46,-3.738 2.67,-7.578 3.65,-11.481 14.71,-20.097 20.32,-46.25 16.39,-71.429 -0.73,-4.68 -1.77,-9.352 -3.09,-14 137.83,45.941 268.83,108.172 388.02,186.269 188.89,123.75 336.6,273.321 445.93,439.101 -2,-0.09 -4,-0.13 -6.01,-0.12 -17.86,0.1 -35.92,4.85 -50.99,14.58"
         style="fill:#ce8950;fill-opacity:1;fill-rule:nonzero;stroke:none"
         id="path18" />
      <path
         d="m 1117.22,766.07 c -1.8,10.168 -1.94,20.692 -0.8,31 2.22,20.039 8.96,42.16 21.87,57.938 2.75,3.363 5.68,6.582 8.78,9.64 -155.09,127.52 -283.168,283.692 -378.519,454.082 -8.352,-3.27 -17.09,-5.66 -25.793,-7.39 -4.789,-0.95 -9.539,-1.64 -14.168,-2.08 -33.231,-3.17 -66.293,3.72 -98.84,9.9 117.762,-215.54 283.098,-411.101 486.5,-562.691 0.12,1.929 0.28,3.851 0.5,5.781 0.13,1.262 0.3,2.539 0.47,3.82"
         style="fill:#ce8950;fill-opacity:1;fill-rule:nonzero;stroke:none"
         id="path20" />
      <path
         d="m 2580.79,2000.57 c -86.89,0 -157.32,39.51 -157.32,88.26 0,13.25 5.2,25.82 14.53,37.1 -42.56,21.03 -73.14,79.14 -73.14,147.53 0,86.13 48.5,155.94 108.33,155.94 59.83,0 108.33,-69.81 108.33,-155.94 0,-36.81 -8.85,-70.64 -23.67,-97.31 7.49,0.61 15.14,0.93 22.94,0.93 15.59,0 30.66,-1.27 44.88,-3.64 -9.79,131.66 -40.24,267.26 -93.16,400.81 -106.83,269.62 -286.11,482.6 -493.26,613.25 -3.91,-4.5 -8.37,-8.56 -13.15,-12.15 -12.08,-9.06 -27.62,-16.72 -42.86,-17.76 -15.24,-1.04 -30.74,1.75 -44.64,8.11 -22.94,10.49 -41.25,30.51 -49.87,53.84 -5.56,15.04 -7.08,31.46 -3.23,47.6 -190.43,78.22 -393.93,88.87 -580.79,14.84 C 852.496,3102.79 669.008,2495.41 894.883,1925.36 1120.76,1355.3 1670.46,1038.44 2122.68,1217.63 c 300.21,118.95 481.99,426.62 504.19,786.79 -14.58,-2.5 -30.05,-3.85 -46.08,-3.85"
         style="fill:#dd9663;fill-opacity:1;fill-rule:nonzero;stroke:none"
         id="path22" />
      <path
         d="m 707.813,1632.55 c 20.589,-10.03 41.796,-25.85 61.066,-45.64 31.809,-32.67 57.996,-75.7 71.266,-116.21 8.96,-27.36 12.039,-53.57 6.984,-74.67 -4.277,-17.87 -15.281,-28.49 -30.137,-32.23 -2.406,-6.02 -5.676,-11.89 -9.961,-17.53 -9.883,-12.99 -23.551,-21.69 -38.48,-27.54 95.351,-170.39 223.429,-326.562 378.519,-454.082 11.41,11.27 25.02,20.321 39.88,26.391 31.17,12.731 67.37,12.27 97.95,-0.66 20.64,-8.719 38.73,-23.129 50.97,-42.988 11.53,-18.711 14.64,-40.461 10.85,-61.27 3.96,-18.859 1.46,-38.769 -6.34,-56.691 69.61,-40.899 143.11,-76.399 220.17,-105.59 299.87,-113.602 639.96,-133.84 955.94,-66.051 -0.46,9.359 0.25,18.699 2.57,27.402 5.25,19.7 15.46,38.071 29.48,52.879 23.14,24.45 56.32,38.961 89.51,39.789 22.4,0.571 44.82,-5.097 64.16,-18.148 14.75,-9.949 25.29,-24 31.5,-39.871 111.81,40.359 218.22,92.699 315.94,156.711 189.88,124.418 334.14,277.429 436.19,447.309 -3.74,6.61 -6.77,13.66 -9.12,20.88 -6.24,19.18 -9.22,42.11 -3.97,61.81 5.26,19.7 15.46,38.07 29.49,52.88 18.83,19.91 44.32,33.22 71.06,37.93 53.71,129.57 86.08,265.9 98.37,404.61 -59.4,-163.28 -142.9,-317.1 -259.71,-453.93 -270.42,-316.73 -685.75,-516.47 -1102.06,-526.31 -19.53,-0.46 -39.02,-0.511 -58.45,-0.152 -0.12,-0.199 -0.23,-0.398 -0.35,-0.598 -2.19,-3.71 -4.53,-7.23 -6.96,-10.539 -18.67,-25.351 -44.79,-43.82 -69.45,-62.863 -27.34,-21.109 -54.94,-44.078 -70.53,-74.719 -0.68,-1.339 -2.56,-1.031 -2.77,0.461 -6.31,45.239 -34.34,85.141 -66.96,117.391 -17.67,17.457 -37.39,33.957 -47.98,56.43 -0.73,1.531 -1.4,3.097 -2.02,4.679 -298.2,61.899 -575.87,213.85 -804.33,416.6 -273.17,242.41 -470.471,570.12 -533.983,931.58 -13.844,78.78 -21.387,157.73 -23.226,236.46 -63.129,-246.5 -66.036,-506.18 -3.246,-748.88 4.781,-18.48 9.933,-36.91 15.457,-55.29 4.711,3.15 10.058,5.42 15.8,6.89 15.774,4.04 36.325,3.41 56.911,-6.63"
         style="fill:#c27848;fill-opacity:1;fill-rule:nonzero;stroke:none"
         id="path24" />
      <path
         d="m 1100.84,1653.24 c 18.06,-14.3 43.26,-22.33 71.26,-24.72 41.48,-3.54 89.11,5.29 128.82,24.41 24.06,11.58 45,26.88 60.4,44.01 15.4,17.13 22.08,38.26 23.02,56.41 0.47,9.31 -0.74,18.49 -4.1,26.94 -7.73,-26.48 -30.51,-45.18 -54.05,-60.23 -30.01,-19.19 -62.16,-35.73 -96.74,-44.22 -23.55,-5.78 -48.38,-7.73 -72.06,-2.51 -23.68,5.22 -46.14,18.06 -60.27,37.76 -3.59,5.01 -6.59,10.41 -8.98,16.08 -13.78,-26.97 -11.01,-55.15 12.7,-73.93"
         style="fill:#ab613a;fill-opacity:1;fill-rule:nonzero;stroke:none"
         id="path26" />
      <path
         d="m 3272.25,2075.75 c 11.5,-24.09 26.73,-45.08 43.82,-60.54 17.08,-15.45 38.19,-22.2 56.34,-23.19 18.99,-1.03 37.44,4.96 50.33,21.95 2.02,2.66 3.89,5.52 5.62,8.57 -26.9,1.84 -49.96,19.28 -69.77,38.27 -25.7,24.65 -49.34,51.99 -65.74,83.62 -11.16,21.52 -18.89,45.2 -19.4,69.43 -0.5,24.25 6.7,49.1 22.51,67.47 5.11,5.94 11.08,11.09 17.62,15.36 -15.24,-0.4 -29.41,-7.07 -40.42,-20.87 -14.35,-18.01 -22.46,-43.18 -24.93,-71.18 -3.67,-41.46 5.01,-89.13 24.02,-128.89"
         style="fill:#ab613a;fill-opacity:1;fill-rule:nonzero;stroke:none"
         id="path28" />
      <path
         d="m 2035.47,961.941 c 21.04,8.868 44.37,11.297 67.17,9.969 33.48,-1.969 66.07,-11.801 97.14,-24.449 28.29,-11.52 56.47,-27.781 64.93,-58.539 6.99,13.008 8.38,27.918 -0.13,43.039 -7.68,13.641 -22.03,26.609 -39.63,37.187 -30.85,18.532 -72.14,31.332 -110.64,34.832 -35.76,3.25 -72.95,-1.49 -98.7,-12.921 -31.13,-13.797 -45.76,-39.168 -31.3,-66.418 0.95,-1.782 1.98,-3.551 3.1,-5.289 10.04,19.339 27.93,34.097 48.06,42.589"
         style="fill:#ab613a;fill-opacity:1;fill-rule:nonzero;stroke:none"
         id="path30" />
      <path
         d="m 756.938,2664.72 c -8.2,-23.15 -23.172,-43.45 -40.754,-60.6 -25.829,-25.18 -57.258,-43.95 -89.821,-59.47 -23.847,-11.37 -50.074,-20.46 -75.328,-15.49 1.012,-3.27 2.207,-6.36 3.551,-9.23 6.816,-14.57 18.984,-25.31 37.641,-26.57 15.621,-1.05 34.336,3.85 52.824,12.78 32.406,15.65 65.742,43.18 89.758,73.47 22.308,28.14 38.722,61.84 43.277,89.65 4.016,24.53 -1.938,45.08 -17.398,55.49 4.875,-19.63 3.035,-40.87 -3.75,-60.03"
         style="fill:#ab613a;fill-opacity:1;fill-rule:nonzero;stroke:none"
         id="path32" />
      <path
         d="m 2119.58,2606.94 c 29.49,-14.88 68.15,-23.82 103.63,-24.42 32.96,-0.56 66.68,6.28 89.49,18.47 25.21,13.48 37.12,34.89 27.44,56.79 -8.89,-15.15 -23.19,-27 -39.25,-34.33 -18.63,-8.5 -39.49,-11.29 -59.96,-10.69 -30.08,0.89 -59.55,8.86 -87.74,19.39 -27.07,10.12 -54.16,24.95 -60.96,55.4 -0.69,3.06 -1.11,6.13 -1.29,9.21 -5,-5.14 -8.92,-10.69 -11.78,-16.19 -6.82,-13.1 -7.86,-27.96 1.63,-42.26 7.95,-11.97 21.96,-22.88 38.79,-31.37"
         style="fill:#ab613a;fill-opacity:1;fill-rule:nonzero;stroke:none"
         id="path34" />
      <path
         d="m 1582.08,3491.64 c -24.38,-9.14 -51.08,-10.85 -77,-8.27 -38.07,3.77 -74.76,16.48 -109.58,32.32 -14.76,6.71 -29.45,14.6 -41.76,24.67 -4.51,-12.44 -3.3,-25.78 7.35,-38.06 9.88,-11.41 26.35,-21.31 45.71,-28.62 33.92,-12.8 77.42,-19.04 116.65,-17.18 36.44,1.73 73.03,10.91 97.09,24.66 28.65,16.39 39.43,40.87 21.7,63.48 -0.57,-1.25 -1.17,-2.48 -1.81,-3.69 -12.04,-23.09 -33.97,-40.16 -58.35,-49.31"
         style="fill:#ab613a;fill-opacity:1;fill-rule:nonzero;stroke:none"
         id="path36" />
      <path
         d="m 698.887,1600.19 c 23.41,-11.08 43.101,-28.96 59.203,-49.24 23.656,-29.79 39.984,-64.78 52.777,-100.6 10.086,-28.23 17.106,-59.06 6.125,-86.55 14.856,3.74 25.86,14.36 30.137,32.23 5.055,21.1 1.976,47.31 -6.984,74.67 -13.27,40.51 -39.457,83.54 -71.266,116.21 -19.27,19.79 -40.477,35.61 -61.066,45.64 -20.586,10.04 -41.137,10.67 -56.911,6.63 -5.742,-1.47 -11.089,-3.74 -15.8,-6.89 -8.563,-5.74 -15.028,-14.42 -17.918,-26.65 2.011,0.76 4.046,1.47 6.113,2.08 24.816,7.39 52.183,3.55 75.59,-7.53"
         style="fill:#ab613a;fill-opacity:1;fill-rule:nonzero;stroke:none"
         id="path38" />
      <path
         d="m 1157.39,1673.33 c 23.68,-5.22 48.51,-3.27 72.06,2.51 34.58,8.49 66.73,25.03 96.74,44.22 23.54,15.05 46.32,33.75 54.05,60.23 1.73,5.93 2.71,12.25 2.77,19.01 0.2,23.82 -12.36,45.22 -27.56,62.7 -3,3.45 -6.12,6.69 -9.29,9.67 -24.37,22.89 -55.21,37.15 -84.62,52.29 -32.6,16.79 -65.85,35.46 -88.02,64.46 -0.97,1.27 -2.87,0.58 -2.8,-1.02 2.11,-48.45 -19.48,-95.51 -47.35,-135.45 -15.09,-21.63 -32.52,-42.66 -39.25,-68.16 -4.93,-18.63 -3.43,-38.9 4.02,-56.62 2.39,-5.67 5.39,-11.07 8.98,-16.08 14.13,-19.7 36.59,-32.54 60.27,-37.76"
         style="fill:#742c1c;fill-opacity:1;fill-rule:nonzero;stroke:none"
         id="path40" />
      <path
         d="m 1127.14,1716.37 c 12.92,-17.41 35.45,-25.04 57.05,-27.04 24.82,-2.31 49.58,1.7 72.88,10.39 29.27,10.92 56.23,29.24 78.04,51.73 11.33,11.68 30.4,32.25 25.86,50.53 -2.16,8.65 -10.53,14.79 -19.31,16.32 -8.78,1.53 -17.83,-0.84 -25.97,-4.46 -18.87,-8.41 -34.02,-23.2 -51.05,-34.88 -21.83,-14.98 -50.5,-26.78 -77.48,-22.65 -23.79,3.65 -43.51,20.96 -44.97,44.28 -1.1,17.53 3.18,25.86 6.96,43.66 0.28,1.37 -1.06,3.99 -5.3,-1.84 -9.25,-12.69 -14.62,-28.67 -19.67,-43.46 -8.91,-26.15 -14.8,-58.66 2.96,-82.58"
         style="fill:#5c1a15;fill-opacity:1;fill-rule:nonzero;stroke:none"
         id="path42" />
      <path
         d="m 3295.96,2281.33 c -15.81,-18.37 -23.01,-43.22 -22.51,-67.47 0.51,-24.23 8.24,-47.91 19.4,-69.43 16.4,-31.63 40.04,-58.97 65.74,-83.62 19.81,-18.99 42.87,-36.43 69.77,-38.27 6.64,-0.45 13.52,0.04 20.63,1.7 23.2,5.41 41.04,22.65 54.46,41.54 2.64,3.72 5.06,7.52 7.2,11.31 16.52,29.07 23.11,62.39 30.9,94.54 8.65,35.65 18.97,72.35 41.94,100.72 1,1.25 -0.11,2.94 -1.65,2.49 -46.6,-13.46 -97.42,-3.55 -142.8,14.14 -24.57,9.57 -49.11,21.55 -75.48,22.1 -17.59,0.37 -35.26,-4.79 -49.98,-14.39 -6.54,-4.27 -12.51,-9.42 -17.62,-15.36"
         style="fill:#742c1c;fill-opacity:1;fill-rule:nonzero;stroke:none"
         id="path44" />
      <path
         d="m 3295.3,2191.58 c 3.62,-24.66 13.33,-47.78 27.26,-68.38 17.51,-25.88 41.65,-47.77 68.65,-63.67 14.02,-8.26 38.5,-21.95 55.2,-13.24 7.9,4.13 11.89,13.71 11.31,22.61 -0.58,8.9 -5.01,17.12 -10.45,24.19 -12.6,16.36 -30.55,27.6 -45.91,41.4 -19.7,17.69 -37.92,42.78 -40.25,69.97 -2.05,23.98 10.13,47.22 32.45,54.14 16.78,5.19 25.88,2.99 44.07,3.51 1.4,0.04 3.63,1.96 -3.03,4.72 -14.51,5.99 -31.31,7.45 -46.88,8.88 -27.51,2.51 -60.49,0.58 -79.56,-22.31 -13.87,-16.66 -15.99,-40.36 -12.86,-61.82"
         style="fill:#5c1a15;fill-opacity:1;fill-rule:nonzero;stroke:none"
         id="path46" />
      <path
         d="m 2153.19,2632.15 c 28.19,-10.53 57.66,-18.5 87.74,-19.39 20.47,-0.6 41.33,2.19 59.96,10.69 16.06,7.33 30.36,19.18 39.25,34.33 1.42,2.43 2.71,4.94 3.84,7.53 8.59,19.69 7.59,43.19 -2.13,62.35 -10.09,19.87 -28.2,34.15 -44.5,49.34 -30.08,28.06 -56.26,63.1 -63.09,103.5 -0.23,1.33 -1.92,1.57 -2.5,0.35 -13.18,-27.88 -37.33,-49.19 -61.29,-68.84 -21.6,-17.71 -44.55,-34.95 -60.62,-58.17 -2.1,-3.02 -4.1,-6.25 -5.97,-9.63 -7.98,-14.46 -13.91,-30.88 -12.94,-47.45 0.18,-3.08 0.6,-6.15 1.29,-9.21 6.8,-30.45 33.89,-45.28 60.96,-55.4"
         style="fill:#742c1c;fill-opacity:1;fill-rule:nonzero;stroke:none"
         id="path48" />
      <path
         d="m 2290.9,2731.26 c 2.92,-19.52 -10.29,-37.31 -29.3,-44.54 -21.55,-8.2 -47.32,-3.53 -68.01,4.98 -16.13,6.64 -31.26,16.17 -48.33,19.77 -7.37,1.55 -15.26,1.91 -22.25,-0.92 -6.98,-2.81 -12.8,-9.37 -13.05,-16.9 -0.52,-15.89 18.88,-29.51 30.3,-37.15 22.01,-14.72 47.51,-25.07 73.63,-28.91 20.77,-3.05 41.94,-1.97 62.03,4.33 17.48,5.47 34.74,15.77 42.33,32.44 10.44,22.9 -0.19,48.71 -12.18,68.72 -6.79,11.33 -14.06,23.58 -23.94,32.43 -4.54,4.05 -5.19,1.66 -4.7,0.58 6.27,-14.04 11.28,-20.16 13.47,-34.83"
         style="fill:#5c1a15;fill-opacity:1;fill-rule:nonzero;stroke:none"
         id="path50" />
      <path
         d="m 1135.85,2532.5 c 0.56,-16.07 7.74,-32.06 19.7,-43.16 7.24,-6.72 16.18,-11.57 25.75,-14.03 9.56,-2.44 20.66,-0.89 29.92,2.22 9.68,3.26 18.69,9.02 24.23,17.79 4.64,7.35 6.85,16.12 6.82,24.77 -0.04,9.91 -2.73,19.98 -7.43,28.88 -0.41,-7.7 -2.61,-15.37 -6.74,-21.9 -5.54,-8.78 -14.55,-14.53 -24.24,-17.8 -9.26,-3.11 -20.35,-4.66 -29.91,-2.21 -9.57,2.45 -18.52,7.31 -25.76,14.03 -4.98,4.62 -9.13,10.09 -12.32,16.07 -0.07,-1.55 -0.08,-3.11 -0.02,-4.66"
         style="fill:#ab613a;fill-opacity:1;fill-rule:nonzero;stroke:none"
         id="path52" />
      <path
         d="m 1413.03,2823.31 c -10.47,-27.58 -27.87,-52.51 -50.24,-71.75 -36.93,-31.76 -86.8,-47.73 -134.69,-44.02 -32.33,2.5 -63.75,13.97 -89.65,35.6 -11.55,9.65 -20.82,21.1 -27.84,33.69 1.73,-35.1 16.35,-68.93 44.25,-92.23 25.91,-21.63 57.33,-33.11 89.66,-35.61 47.88,-3.7 97.77,12.26 134.68,44.02 22.37,19.25 39.78,44.18 50.25,71.75 10.47,27.57 9.58,61.01 3.43,89.52 -2.82,13.07 -7.09,25.9 -13.05,37.82 2.57,-23.14 1.21,-47.69 -6.8,-68.79"
         style="fill:#ab613a;fill-opacity:1;fill-rule:nonzero;stroke:none"
         id="path54" />
      <path
         d="m 1148.19,2521.09 c 7.24,-6.72 16.19,-11.58 25.76,-14.03 9.56,-2.45 20.65,-0.9 29.91,2.21 9.69,3.27 18.7,9.02 24.24,17.8 4.13,6.53 6.33,14.2 6.74,21.9 0.05,0.95 0.08,1.91 0.07,2.87 -0.06,15.16 -6.33,30.72 -16.52,41.88 -9.47,10.38 -23.5,17.96 -37.42,19.99 -16.81,2.45 -34.45,-3.85 -43.99,-18.3 -6.22,-9.43 -8.86,-20.32 -8.48,-31.16 0.32,-9.37 2.91,-18.73 7.37,-27.09 3.19,-5.98 7.34,-11.45 12.32,-16.07"
         style="fill:#742c1c;fill-opacity:1;fill-rule:nonzero;stroke:none"
         id="path56" />
      <path
         d="m 1138.45,2743.14 c 25.9,-21.63 57.32,-33.1 89.65,-35.6 47.89,-3.71 97.76,12.26 134.69,44.02 22.37,19.24 39.77,44.17 50.24,71.75 8.01,21.1 9.37,45.65 6.8,68.79 -0.78,7.09 -1.93,14.04 -3.37,20.73 -6.43,29.84 -20.52,58.5 -44.69,77.88 -20.25,16.23 -45.55,25.73 -71.24,28.52 -45.03,4.88 -93.29,-8.51 -129.85,-35.04 -33.96,-24.64 -61.14,-63.75 -71.83,-104.37 -9.15,-34.8 -5.36,-72.3 11.76,-102.99 7.02,-12.59 16.29,-24.04 27.84,-33.69"
         style="fill:#742c1c;fill-opacity:1;fill-rule:nonzero;stroke:none"
         id="path58" />
      <path
         d="m 1119.66,2829.46 c -0.85,-8.83 -0.06,-19.89 8.05,-23.47 7,-3.09 15.34,2.05 18.85,8.85 3.51,6.8 3.67,14.76 4.58,22.36 2.98,24.77 14.75,47.84 29.94,67.64 7.89,10.29 76.52,66.07 45.88,77.1 -7.43,2.5 -15.59,-0.61 -22.54,-4.32 -26.16,-13.95 -46.94,-36.9 -60.81,-63.1 -13.87,-26.2 -21.11,-55.55 -23.95,-85.06"
         style="fill:#5c1a15;fill-opacity:1;fill-rule:nonzero;stroke:none"
         id="path60" />
      <path
         d="m 2943.28,1600.3 c 9.02,1.65 19.53,1.61 28.09,-1.94 8.57,-3.56 16.23,-9.27 22.06,-16.47 4.01,-4.96 7.14,-10.6 9.29,-16.58 0.28,1.43 0.5,2.87 0.66,4.32 1.62,15.01 -2.92,30.83 -12.54,42.73 -5.83,7.21 -13.5,12.92 -22.06,16.48 -8.56,3.55 -19.07,3.59 -28.09,1.93 -9.44,-1.73 -18.58,-5.88 -24.89,-13.29 -5.3,-6.2 -8.52,-14.06 -9.65,-22.11 -1.28,-9.21 -0.13,-18.92 3.04,-27.82 1.42,7.1 4.49,13.93 9.19,19.45 6.33,7.41 15.46,11.56 24.9,13.3"
         style="fill:#ab613a;fill-opacity:1;fill-rule:nonzero;stroke:none"
         id="path62" />
      <path
         d="m 2763.24,1396.39 c 38.56,24.58 87.04,32.76 131.04,22.92 29.7,-6.64 57.37,-21.5 78.55,-45.06 9.44,-10.51 16.52,-22.38 21.37,-35.02 3.08,32.84 -6,66.23 -28.81,91.61 -21.18,23.56 -48.84,38.42 -78.55,45.06 -44,9.84 -92.48,1.67 -131.03,-22.91 -23.35,-14.9 -42.86,-35.74 -56.27,-59.97 -13.41,-24.2 -17.05,-55.4 -15.15,-82.72 0.87,-12.51 3.14,-25 7.07,-36.88 0.71,21.85 5.25,44.48 15.51,63.01 13.42,24.23 32.92,45.07 56.27,59.96"
         style="fill:#ab613a;fill-opacity:1;fill-rule:nonzero;stroke:none"
         id="path64" />
      <path
         d="m 2993.43,1581.89 c -5.83,7.2 -13.49,12.91 -22.06,16.47 -8.56,3.55 -19.07,3.59 -28.09,1.94 -9.44,-1.74 -18.57,-5.89 -24.9,-13.3 -4.7,-5.52 -7.77,-12.35 -9.19,-19.45 -0.17,-0.88 -0.32,-1.77 -0.45,-2.66 -1.97,-14.1 1.78,-29.38 9.76,-41.12 7.42,-10.91 19.44,-19.83 32.1,-23.57 15.3,-4.53 32.53,-1.02 43.33,11.13 7.04,7.93 10.94,17.69 12.04,27.82 0.94,8.76 -0.21,17.79 -3.25,26.16 -2.15,5.98 -5.28,11.62 -9.29,16.58"
         style="fill:#742c1c;fill-opacity:1;fill-rule:nonzero;stroke:none"
         id="path66" />
      <path
         d="m 2972.83,1374.25 c -21.18,23.56 -48.85,38.42 -78.55,45.06 -44,9.84 -92.48,1.66 -131.04,-22.92 -23.35,-14.89 -42.85,-35.73 -56.27,-59.96 -10.26,-18.53 -14.8,-41.16 -15.51,-63.01 -0.21,-6.69 -0.08,-13.31 0.37,-19.71 1.99,-28.59 11.25,-57.1 31.12,-78.33 16.65,-17.79 38.9,-30 62.39,-36.02 41.19,-10.55 87.83,-4.55 125.34,15.21 34.84,18.36 65.33,51.07 80.68,87.39 13.15,31.12 14.65,66.47 2.84,97.27 -4.85,12.64 -11.93,24.51 -21.37,35.02"
         style="fill:#742c1c;fill-opacity:1;fill-rule:nonzero;stroke:none"
         id="path68" />
      <path
         d="m 2978.75,1291.54 c 1.97,8.09 2.71,18.47 -4.34,22.88 -6.09,3.8 -14.53,0.14 -18.7,-5.71 -4.17,-5.85 -5.38,-13.22 -7.24,-20.16 -6.08,-22.63 -20.1,-42.48 -36.86,-58.86 -8.7,-8.51 -79.93,-51.16 -52.92,-65.5 6.56,-3.32 14.57,-1.53 21.52,0.99 26.17,9.47 48.54,28.02 64.93,50.51 16.39,22.5 27.04,48.8 33.61,75.85"
         style="fill:#5c1a15;fill-opacity:1;fill-rule:nonzero;stroke:none"
         id="path70" />
      <path
         d="m 2668.24,2885.69 c 4.74,-4.48 10.88,-7.38 17.26,-8.6 7.3,-1.4 15.11,-0.87 22.35,1.3 -5.62,1.42 -10.95,4.15 -15.17,8.13 -5.66,5.35 -8.6,12.81 -9.6,20.42 -0.97,7.27 -0.51,15.67 2.68,22.36 3.19,6.69 8.05,12.58 14.05,16.95 4.12,3 8.75,5.26 13.61,6.75 -1.13,0.27 -2.27,0.51 -3.42,0.69 -11.92,1.91 -24.74,-1.07 -34.63,-8.28 -6,-4.36 -10.87,-10.25 -14.06,-16.95 -3.18,-6.69 -3.64,-15.08 -2.68,-22.35 1,-7.61 3.94,-15.08 9.61,-20.42"
         style="fill:#ab613a;fill-opacity:1;fill-rule:nonzero;stroke:none"
         id="path72" />
      <path
         d="m 2838.73,2703.88 c 18.79,-11.69 43.56,-15.86 65.45,-15.45 10.02,0.19 20.1,1.49 29.74,4.16 -17.42,1.45 -35.31,5.99 -49.7,14.94 -18.8,11.69 -34.65,28.11 -45.6,47.36 -18.07,31.79 -22.63,70.84 -12.99,105.58 6.51,23.46 19.5,44.95 39.17,60.91 8.77,7.11 18.54,12.28 28.83,15.64 -26.1,3.79 -53.13,-2.1 -74.33,-19.29 -19.67,-15.96 -32.66,-37.45 -39.17,-60.9 -9.64,-34.74 -5.08,-73.8 13,-105.58 10.94,-19.26 26.79,-35.68 45.6,-47.37"
         style="fill:#ab613a;fill-opacity:1;fill-rule:nonzero;stroke:none"
         id="path74" />
      <path
         d="m 2685.76,2929.3 c -3.19,-6.69 -3.65,-15.09 -2.68,-22.36 1,-7.61 3.94,-15.07 9.6,-20.42 4.22,-3.98 9.55,-6.71 15.17,-8.13 0.69,-0.17 1.39,-0.33 2.1,-0.47 11.18,-2.14 23.54,0.23 33.24,6.13 9.01,5.48 16.62,14.73 20.12,24.68 4.24,12.04 2.14,25.94 -7.13,35.05 -6.05,5.95 -13.68,9.46 -21.73,10.75 -6.95,1.11 -14.22,0.56 -21.03,-1.53 -4.86,-1.49 -9.49,-3.75 -13.61,-6.75 -6,-4.37 -10.86,-10.26 -14.05,-16.95"
         style="fill:#742c1c;fill-opacity:1;fill-rule:nonzero;stroke:none"
         id="path76" />
      <path
         d="m 2825.63,2860.47 c -9.64,-34.74 -5.08,-73.79 12.99,-105.58 10.95,-19.25 26.8,-35.67 45.6,-47.36 14.39,-8.95 32.28,-13.49 49.7,-14.94 5.34,-0.45 10.63,-0.61 15.76,-0.51 22.91,0.43 46.05,6.67 63.82,21.68 14.88,12.58 25.52,29.85 31.29,48.37 10.1,32.46 7.2,69.95 -7.07,100.71 -13.25,28.57 -38.13,54.24 -66.52,67.98 -24.32,11.77 -52.48,14.39 -77.57,6.2 -10.29,-3.36 -20.06,-8.53 -28.83,-15.64 -19.67,-15.96 -32.66,-37.45 -39.17,-60.91"
         style="fill:#742c1c;fill-opacity:1;fill-rule:nonzero;stroke:none"
         id="path78" />
      <path
         d="m 2931.09,2922.76 c -6.37,1.9 -14.63,2.92 -18.44,-2.54 -3.29,-4.72 -0.71,-11.6 3.8,-15.17 4.5,-3.57 10.34,-4.83 15.81,-6.6 17.82,-5.77 33.11,-17.77 45.51,-31.82 6.44,-7.3 37.62,-65.91 50.17,-44.92 2.91,5.11 1.81,11.57 0.08,17.22 -6.51,21.29 -20.41,39.91 -37.72,53.91 -17.29,14 -37.87,23.57 -59.21,29.92"
         style="fill:#5c1a15;fill-opacity:1;fill-rule:nonzero;stroke:none"
         id="path80" />
      <path
         d="m 2702.21,659.711 c -19.34,13.051 -41.76,18.719 -64.16,18.148 -33.19,-0.828 -66.37,-15.339 -89.51,-39.789 -14.02,-14.808 -24.23,-33.179 -29.48,-52.879 -2.32,-8.703 -3.03,-18.043 -2.57,-27.402 0.59,-11.828 3.05,-23.699 6.54,-34.398 3.21,-9.86 7.67,-19.391 13.51,-27.911 -5.45,18.372 -7.75,39.668 -2.83,58.122 5.25,19.699 15.46,38.066 29.48,52.878 23.15,24.45 56.32,38.961 89.51,39.79 22.41,0.558 44.82,-5.11 64.17,-18.149 8.11,-5.48 14.95,-12.191 20.49,-19.762 -0.98,3.903 -2.19,7.743 -3.65,11.481 -6.21,15.871 -16.75,29.922 -31.5,39.871"
         style="fill:#ab613a;fill-opacity:1;fill-rule:nonzero;stroke:none"
         id="path82" />
      <path
         d="m 2737.36,608.359 c -5.54,7.571 -12.38,14.282 -20.49,19.762 -19.35,13.039 -41.76,18.707 -64.17,18.149 -33.19,-0.829 -66.36,-15.34 -89.51,-39.79 -14.02,-14.812 -24.23,-33.179 -29.48,-52.878 -4.92,-18.454 -2.62,-39.75 2.83,-58.122 0.36,-1.242 0.75,-2.468 1.14,-3.691 2.68,-8.238 6.24,-16.25 10.74,-23.629 6.47,-10.601 14.89,-19.91 25.49,-26.762 15.07,-9.73 33.14,-14.468 51.01,-14.578 31.31,-0.179 63.55,12.442 86.81,33.27 18.08,16.191 32.19,39.012 38.93,62.84 1.32,4.648 2.36,9.32 3.09,14 3.93,25.179 -1.68,51.332 -16.39,71.429"
         style="fill:#742c1c;fill-opacity:1;fill-rule:nonzero;stroke:none"
         id="path84" />
      <path
         d="m 2735.88,570.09 c -0.04,6.129 -1.36,13.68 -7.19,15.57 -5.04,1.629 -10.4,-2.492 -12.34,-7.422 -1.94,-4.918 -1.48,-10.41 -1.57,-15.687 -0.3,-17.25 -6.77,-33.942 -15.81,-48.641 -4.7,-7.629 -47.95,-50.832 -26.1,-56.25 5.28,-1.191 10.68,1.52 15.2,4.559 17,11.441 29.66,28.691 37.35,47.679 7.69,19 10.6,39.704 10.46,60.192"
         style="fill:#5c1a15;fill-opacity:1;fill-rule:nonzero;stroke:none"
         id="path86" />
      <path
         d="m 3655.9,1381.07 c -19.34,13.04 -41.75,18.71 -64.16,18.15 -6.17,-0.16 -12.34,-0.79 -18.44,-1.86 -26.74,-4.71 -52.23,-18.02 -71.06,-37.93 -14.03,-14.81 -24.23,-33.18 -29.49,-52.88 -5.25,-19.7 -2.27,-42.63 3.97,-61.81 2.35,-7.22 5.38,-14.27 9.12,-20.88 1.37,-2.4 2.82,-4.75 4.38,-7.03 -5.43,18.39 -7.73,39.68 -2.82,58.12 5.26,19.71 15.46,38.08 29.48,52.89 23.15,24.45 56.32,38.95 89.52,39.79 22.4,0.56 44.81,-5.11 64.16,-18.16 8.11,-5.46 14.95,-12.18 20.49,-19.76 -0.53,2.16 -1.15,4.29 -1.83,6.39 -5.84,17.95 -17.01,33.97 -33.32,44.97"
         style="fill:#ab613a;fill-opacity:1;fill-rule:nonzero;stroke:none"
         id="path88" />
      <path
         d="m 3670.56,1349.47 c -19.35,13.05 -41.76,18.72 -64.16,18.16 -33.2,-0.84 -66.37,-15.34 -89.52,-39.79 -14.02,-14.81 -24.22,-33.18 -29.48,-52.89 -4.91,-18.44 -2.61,-39.73 2.82,-58.12 0.38,-1.24 0.76,-2.46 1.15,-3.67 6.53,-20.07 18.24,-38.78 36.24,-50.4 15.07,-9.73 33.13,-14.48 50.99,-14.58 2.01,-0.01 4.01,0.03 6.01,0.12 29.38,1.35 59.03,13.65 80.81,33.15 21.61,19.34 37.54,48.15 42.02,76.84 3.93,25.17 -1.68,51.33 -16.39,71.42 -5.54,7.58 -12.38,14.3 -20.49,19.76"
         style="fill:#742c1c;fill-opacity:1;fill-rule:nonzero;stroke:none"
         id="path90" />
      <path
         d="m 3682.38,1307.02 c -5.04,1.63 -10.4,-2.5 -12.34,-7.42 -1.93,-4.92 -1.48,-10.4 -1.56,-15.7 -0.31,-17.24 -6.77,-33.94 -15.81,-48.62 -4.71,-7.64 -47.96,-50.84 -26.11,-56.26 5.29,-1.2 10.68,1.52 15.2,4.56 17,11.44 29.67,28.69 37.35,47.69 7.7,18.99 10.6,39.69 10.46,60.18 -0.04,6.13 -1.36,13.68 -7.19,15.57"
         style="fill:#5c1a15;fill-opacity:1;fill-rule:nonzero;stroke:none"
         id="path92" />
      <path
         d="m 1711.22,1430.37 c -10.73,8.64 -25.72,13.07 -39.28,14.47 -6.97,0.71 -14.08,0.56 -20.95,-0.71 12.85,-1.67 26.64,-6.08 36.7,-14.17 10.73,-8.64 19.3,-19.98 24.61,-32.7 8.77,-21 8.66,-45.47 0.09,-66.21 -5.79,-14 -15.43,-26.31 -28.79,-34.69 -5.6,-3.51 -11.62,-5.9 -17.82,-7.26 14.09,-2.44 28.78,-0.23 41.36,7.67 13.36,8.38 23,20.68 28.79,34.69 8.57,20.74 8.68,45.21 -0.09,66.21 -5.32,12.72 -13.88,24.06 -24.62,32.7"
         style="fill:#ab613a;fill-opacity:1;fill-rule:nonzero;stroke:none"
         id="path94" />
      <path
         d="m 1712.39,1331.05 c 8.57,20.74 8.68,45.21 -0.09,66.21 -5.31,12.72 -13.88,24.06 -24.61,32.7 -10.06,8.09 -23.85,12.5 -36.7,14.17 -0.87,0.11 -1.73,0.21 -2.59,0.3 -14.19,1.46 -28.96,-0.66 -41.06,-8.6 -10.14,-6.65 -18.02,-16.52 -22.97,-27.53 -8.69,-19.3 -9.71,-42.68 -3.21,-62.76 6.04,-18.65 19.48,-36.39 35.99,-47.01 14.49,-9.32 32.19,-13.02 48.63,-9.43 6.2,1.36 12.22,3.75 17.82,7.26 13.36,8.38 23,20.69 28.79,34.69"
         style="fill:#742c1c;fill-opacity:1;fill-rule:nonzero;stroke:none"
         id="path96" />
      <path
         d="m 1642.54,1300.5 c 3.8,-1.66 8.83,-2.91 11.59,0.18 2.38,2.66 1.3,7.11 -1.21,9.65 -2.51,2.55 -6.03,3.77 -9.27,5.27 -10.58,4.91 -19.12,13.47 -25.73,23.08 -3.43,5 -18.29,43.56 -27.62,31.54 -2.18,-2.94 -1.99,-7.02 -1.34,-10.64 2.41,-13.64 9.6,-26.19 19.24,-36.15 9.64,-9.95 21.63,-17.41 34.34,-22.93"
         style="fill:#5c1a15;fill-opacity:1;fill-rule:nonzero;stroke:none"
         id="path98" />
      <path
         d="m 1335.87,847.391 c -12.24,19.859 -30.33,34.269 -50.97,42.988 -30.58,12.93 -66.78,13.391 -97.95,0.66 -14.86,-6.07 -28.47,-15.121 -39.88,-26.391 -3.1,-3.058 -6.03,-6.277 -8.78,-9.64 -12.91,-15.778 -19.65,-37.899 -21.87,-57.938 -1.14,-10.308 -1,-20.832 0.8,-31 2.62,18.989 9.3,39.34 21.39,54.11 12.91,15.789 29.78,28.32 48.67,36.031 31.16,12.738 67.36,12.269 97.94,-0.652 20.65,-8.731 38.74,-23.129 50.98,-42.989 5.13,-8.332 8.59,-17.269 10.52,-26.449 3.79,20.809 0.68,42.559 -10.85,61.27"
         style="fill:#ab613a;fill-opacity:1;fill-rule:nonzero;stroke:none"
         id="path100" />
      <path
         d="m 1332.21,714.289 c 3.16,4.82 5.89,9.902 8.17,15.141 7.8,17.922 10.3,37.832 6.34,56.691 -1.93,9.18 -5.39,18.117 -10.52,26.449 -12.24,19.86 -30.33,34.258 -50.98,42.989 -30.58,12.921 -66.78,13.39 -97.94,0.652 -18.89,-7.711 -35.76,-20.242 -48.67,-36.031 -12.09,-14.77 -18.77,-35.121 -21.39,-54.11 -0.17,-1.281 -0.34,-2.558 -0.47,-3.82 -0.22,-1.93 -0.38,-3.852 -0.5,-5.781 -1.21,-19.168 2.19,-38.719 12.73,-55.078 9.72,-15.071 24.23,-26.852 40.46,-34.301 27.63,-12.699 61.04,-14.75 90.22,-6.27 0.86,0.25 1.73,0.508 2.58,0.782 27.66,8.707 54.06,28.398 69.97,52.687"
         style="fill:#742c1c;fill-opacity:1;fill-rule:nonzero;stroke:none"
         id="path102" />
      <path
         d="m 1175.53,794.148 c 5.22,0.852 9.71,4.032 14.3,6.653 15,8.527 32.66,11.469 49.91,11.168 8.96,-0.149 68.17,-15.348 61.7,6.211 -1.67,5.16 -6.75,8.41 -11.66,10.75 -18.51,8.8 -39.81,10.922 -60.07,7.851 -20.27,-3.07 -39.55,-11.113 -57.12,-21.672 -5.25,-3.16 -11.08,-8.14 -9.73,-14.121 1.16,-5.16 7.45,-7.679 12.67,-6.84"
         style="fill:#5c1a15;fill-opacity:1;fill-rule:nonzero;stroke:none"
         id="path104" />
      <path
         d="m 1888.73,3219.54 c 8.62,-23.33 26.93,-43.35 49.87,-53.84 13.9,-6.36 29.4,-9.15 44.64,-8.11 15.24,1.04 30.78,8.7 42.86,17.76 4.78,3.59 9.24,7.65 13.15,12.15 1.18,1.35 2.31,2.75 3.38,4.19 -11.72,-8.31 -26.26,-15.09 -40.54,-16.07 -15.23,-1.04 -30.73,1.76 -44.63,8.11 -22.94,10.5 -41.25,30.52 -49.87,53.85 -5.82,15.75 -7.23,33.02 -2.66,49.89 1.92,7.08 5.03,13.55 9.06,19.32 -13.31,-8.61 -23.6,-21.46 -27.91,-37.35 -0.21,-0.76 -0.4,-1.53 -0.58,-2.3 -3.85,-16.14 -2.33,-32.56 3.23,-47.6"
         style="fill:#ab613a;fill-opacity:1;fill-rule:nonzero;stroke:none"
         id="path106" />
      <path
         d="m 1907.59,3237.58 c 8.62,-23.33 26.93,-43.35 49.87,-53.85 13.9,-6.35 29.4,-9.15 44.63,-8.11 14.28,0.98 28.82,7.76 40.54,16.07 0.79,0.56 1.57,1.13 2.33,1.7 12.65,9.49 23.09,22.32 26.97,37.89 3.26,13.04 2.24,27 -2,39.69 -7.45,22.25 -24.2,42.06 -44.6,53.51 -18.94,10.65 -43.23,14.97 -64.66,11.21 -18.8,-3.31 -35.99,-13.61 -46.68,-28.9 -4.03,-5.77 -7.14,-12.24 -9.06,-19.32 -4.57,-16.87 -3.16,-34.14 2.66,-49.89"
         style="fill:#742c1c;fill-opacity:1;fill-rule:nonzero;stroke:none"
         id="path108" />
      <path
         d="m 1941.48,3314.99 c -4.34,-1.51 -9.37,-4.27 -9.3,-8.86 0.06,-3.97 4.28,-6.77 8.24,-6.96 3.96,-0.18 7.74,1.47 11.52,2.69 12.3,3.96 25.7,3.42 38.31,0.55 6.55,-1.48 47.65,-21.7 46.21,-4.89 -0.44,4.03 -3.67,7.2 -6.91,9.67 -12.23,9.29 -27.53,14.1 -42.86,14.95 -15.33,0.86 -30.71,-2.09 -45.21,-7.15"
         style="fill:#5c1a15;fill-opacity:1;fill-rule:nonzero;stroke:none"
         id="path110" />
      <path
         d="m 1671.18,2000.57 c 86.89,0 157.32,39.51 157.32,88.26 0,14.08 -5.87,27.39 -16.33,39.2 -12.15,-6.79 -25.36,-10.52 -39.18,-10.52 -34.4,0 -65.05,23.08 -84.89,59.06 -5.56,0.34 -11.21,0.51 -16.92,0.51 -86.88,0 -157.32,-39.51 -157.32,-88.25 0,-48.75 70.44,-88.26 157.32,-88.26"
         style="fill:#ed5e6c;fill-opacity:1;fill-rule:nonzero;stroke:none"
         id="path112" />
      <path
         d="m 2557.85,2176.15 c -19.85,-35.74 -50.4,-58.64 -84.66,-58.64 -12.32,0 -24.15,2.97 -35.19,8.42 -9.33,-11.28 -14.53,-23.85 -14.53,-37.1 0,-48.75 70.43,-88.26 157.32,-88.26 16.03,0 31.5,1.35 46.08,3.85 64.4,11.05 111.24,44.66 111.24,84.41 0,39.99 -47.42,73.77 -112.44,84.61 -14.22,2.37 -29.29,3.64 -44.88,3.64 -7.8,0 -15.45,-0.32 -22.94,-0.93"
         style="fill:#ed5e6c;fill-opacity:1;fill-rule:nonzero;stroke:none"
         id="path114" />
      <path
         d="m 1772.99,2117.51 c 13.82,0 27.03,3.73 39.18,10.52 40.46,22.61 69.15,79.19 69.15,145.43 0,86.13 -48.5,155.94 -108.33,155.94 -59.84,0 -108.34,-69.81 -108.34,-155.94 0,-36.61 8.77,-70.27 23.45,-96.89 19.84,-35.98 50.49,-59.06 84.89,-59.06"
         style="fill:#351f17;fill-opacity:1;fill-rule:nonzero;stroke:none"
         id="path116" />
      <path
         d="m 1752.61,2289.91 c 19.83,0 35.91,23.14 35.91,51.68 0,28.55 -16.08,51.69 -35.91,51.69 -19.83,0 -35.91,-23.14 -35.91,-51.69 0,-28.54 16.08,-51.68 35.91,-51.68"
         style="fill:#ffffff;fill-opacity:1;fill-rule:nonzero;stroke:none"
         id="path118" />
      <path
         d="m 2557.85,2176.15 c 14.82,26.67 23.67,60.5 23.67,97.31 0,86.13 -48.5,155.94 -108.33,155.94 -59.83,0 -108.33,-69.81 -108.33,-155.94 0,-68.39 30.58,-126.5 73.14,-147.53 11.04,-5.45 22.87,-8.42 35.19,-8.42 34.26,0 64.81,22.9 84.66,58.64"
         style="fill:#351f17;fill-opacity:1;fill-rule:nonzero;stroke:none"
         id="path120" />
      <path
         d="m 2488.72,2341.59 c 0,28.55 -16.08,51.69 -35.91,51.69 -19.83,0 -35.91,-23.14 -35.91,-51.69 0,-28.54 16.08,-51.68 35.91,-51.68 19.83,0 35.91,23.14 35.91,51.68"
         style="fill:#ffffff;fill-opacity:1;fill-rule:nonzero;stroke:none"
         id="path122" />
      <path
         d="m 2125.99,1943.64 c 51.67,-0.01 98.64,20.82 132.53,54.46 33.92,33.6 55,80.29 54.99,131.68 0,11.04 -8.96,20 -20,20 -11.05,0 -20,-8.96 -20,-20 v 0 c -0.02,-40.37 -16.44,-76.76 -43.15,-103.28 -26.75,-26.49 -63.53,-42.86 -104.37,-42.86 -40.85,0 -77.64,16.37 -104.38,42.86 -26.71,26.52 -43.13,62.91 -43.15,103.28 0,11.04 -8.95,20 -20,20 -11.04,0 -19.99,-8.96 -19.99,-20 -0.02,-51.39 21.06,-98.08 54.98,-131.68 33.88,-33.64 80.86,-54.47 132.54,-54.46"
         style="fill:#351f17;fill-opacity:1;fill-rule:nonzero;stroke:none"
         id="path124" />
      <path
         d="m 2034.43,790.711 c 32.62,-32.25 60.65,-72.152 66.96,-117.391 0.21,-1.492 2.09,-1.8 2.77,-0.461 15.59,30.641 43.19,53.61 70.53,74.719 24.66,19.043 50.78,37.512 69.45,62.863 2.43,3.309 4.77,6.829 6.96,10.539 0.12,0.2 0.23,0.399 0.35,0.598 10.91,18.66 18.68,40.383 14.47,62.172 -0.34,1.77 -0.74,3.488 -1.21,5.172 -8.46,30.758 -36.64,47.019 -64.93,58.539 -31.07,12.648 -63.66,22.48 -97.14,24.449 -22.8,1.328 -46.13,-1.101 -67.17,-9.969 -20.13,-8.492 -38.02,-23.25 -48.06,-42.589 -0.46,-0.883 -0.9,-1.762 -1.32,-2.661 -9.48,-20.132 -9.84,-44.191 -1.66,-64.871 0.62,-1.582 1.29,-3.148 2.02,-4.679 10.59,-22.473 30.31,-38.973 47.98,-56.43"
         style="fill:#742c1c;fill-opacity:1;fill-rule:nonzero;stroke:none"
         id="path126" />
      <path
         d="m 2051.77,803.02 c 4.92,-4.661 5.73,-2.008 5.22,-0.79 -6.53,15.84 -11.92,22.829 -13.89,39.25 -2.62,21.848 12.69,41.239 34.1,48.68 24.28,8.442 52.85,2.399 75.62,-7.75 17.77,-7.922 34.32,-19.039 53.23,-23.601 8.16,-1.969 16.94,-2.618 24.82,0.3 7.87,2.911 14.57,10.032 15.09,18.411 1.09,17.699 -20.08,33.5 -32.56,42.378 -24.04,17.114 -52.13,29.493 -81.11,34.602 -23.06,4.078 -46.67,3.559 -69.27,-2.801 -19.66,-5.539 -39.22,-16.449 -48.23,-34.781 -12.37,-25.18 -1.37,-54.289 11.35,-76.988 7.2,-12.84 14.9,-26.719 25.63,-36.91"
         style="fill:#5c1a15;fill-opacity:1;fill-rule:nonzero;stroke:none"
         id="path128" />
      <path
         d="m 527.805,2538.25 c 7.582,-4.63 15.359,-7.54 23.23,-9.09 25.254,-4.97 51.481,4.12 75.328,15.49 32.563,15.52 63.992,34.29 89.821,59.47 17.582,17.15 32.554,37.45 40.754,60.6 6.785,19.16 8.625,40.4 3.75,60.03 -1.016,4.08 -2.313,8.09 -3.926,12 -9.821,23.81 -30.91,42.53 -55.532,50.12 -25.527,7.86 -52.937,4.15 -79.609,2.76 -17.426,-0.9 -35.199,-0.65 -52.683,1.27 -31.946,3.52 -62.938,12.64 -89.118,30.59 -1.34,0.91 -2.949,-0.35 -2.379,-1.87 13.051,-34.59 11.297,-73.17 8.262,-110.19 -2.734,-33.39 -6.992,-67.53 -0.371,-100.75 0.863,-4.32 1.973,-8.74 3.336,-13.16 1.371,-4.48 2.937,-8.95 4.727,-13.33 7.171,-17.6 17.929,-33.87 34.41,-43.94"
         style="fill:#742c1c;fill-opacity:1;fill-rule:nonzero;stroke:none"
         id="path130" />
      <path
         d="m 614.43,2763.35 c 17.316,-6.29 26.777,-7.07 41.25,-17.4 19.261,-13.75 23.582,-39.97 13.976,-62.38 -10.89,-25.41 -36.394,-43.73 -60.965,-54.47 -19.164,-8.38 -39.996,-13.48 -57.32,-25.2 -7.48,-5.06 -14.363,-11.56 -17.75,-19.93 -3.387,-8.37 -2.598,-18.86 3.688,-25.34 13.281,-13.7 41.171,-8.32 57.285,-4.84 31.019,6.71 61.203,20.06 86.269,39.38 19.95,15.37 36.653,34.51 47.969,57.08 9.844,19.64 15.352,43.09 7.313,63.53 -11.051,28.07 -42.153,40.43 -69.403,46.76 -15.418,3.59 -32.039,7.53 -47.898,6.39 -7.278,-0.53 -5.746,-3.09 -4.414,-3.58"
         style="fill:#5c1a15;fill-opacity:1;fill-rule:nonzero;stroke:none"
         id="path132" />
      <path
         d="m 1353.74,3540.36 c 12.31,-10.07 27,-17.96 41.76,-24.67 34.82,-15.84 71.51,-28.55 109.58,-32.32 25.92,-2.58 52.62,-0.87 77,8.27 24.38,9.15 46.31,26.22 58.35,49.31 0.64,1.21 1.24,2.44 1.81,3.69 10.87,23.52 11.09,51.69 0.98,75.59 -11.04,26.09 -32.77,45.8 -52.1,66.5 -2.8,3.01 -5.57,6.07 -8.29,9.18 -31.98,36.45 -57.92,79.9 -62.63,127.67 -0.17,1.71 -2.29,2.15 -3.13,0.65 -19.17,-34.2 -51.69,-59.1 -83.81,-81.91 -28.97,-20.56 -59.59,-40.41 -82.03,-68.45 -2.92,-3.65 -5.75,-7.57 -8.41,-11.69 -13.1,-20.26 -23,-44.05 -20.1,-68.53 0.1,-0.78 0.2,-1.55 0.32,-2.33 3.32,-21.91 15.11,-38.19 30.7,-50.96"
         style="fill:#742c1c;fill-opacity:1;fill-rule:nonzero;stroke:none"
         id="path134" />
      <path
         d="m 1381.24,3547.71 c 26.61,-20.6 58.05,-35.98 90.84,-43.15 26.09,-5.7 53.03,-6.2 79.08,0.02 22.65,5.41 45.45,16.95 56.55,37.42 15.25,28.13 4.05,61.81 -9.4,88.26 -7.62,14.96 -15.76,31.14 -27.51,43.23 -5.4,5.55 -6.43,2.56 -5.92,1.15 6.72,-18.35 12.54,-26.56 14.03,-45.37 1.99,-25.02 -16.35,-46.41 -41.09,-53.91 -28.06,-8.5 -60.34,-0.31 -85.83,12.3 -19.88,9.84 -38.24,23.27 -59.58,29.34 -9.21,2.62 -19.18,3.77 -28.29,0.8 -9.11,-2.96 -17.07,-10.76 -18.05,-20.29 -2.05,-20.12 21.35,-39.1 35.17,-49.8"
         style="fill:#5c1a15;fill-opacity:1;fill-rule:nonzero;stroke:none"
         id="path136" />
      <path
         d="m 728.59,1309.26 c 4.629,0.44 9.379,1.13 14.168,2.08 8.703,1.73 17.441,4.12 25.793,7.39 14.929,5.85 28.597,14.55 38.48,27.54 4.285,5.64 7.555,11.51 9.961,17.53 10.981,27.49 3.961,58.32 -6.125,86.55 -12.793,35.82 -29.121,70.81 -52.777,100.6 -16.102,20.28 -35.793,38.16 -59.203,49.24 -23.407,11.08 -50.774,14.92 -75.59,7.53 -2.067,-0.61 -4.102,-1.32 -6.113,-2.08 -23.321,-8.91 -42.657,-27.79 -52.411,-50.81 -10.3,-24.34 -10.089,-51.51 -11.183,-78.01 -0.074,-1.74 -0.152,-3.48 -0.235,-5.22 -2.593,-51.94 -15.125,-105.81 -48.597,-145.34 -1.106,-1.31 0.051,-3.13 1.703,-2.7 37.684,9.99 77.969,4.02 116.484,-3.12 2.266,-0.42 4.535,-0.85 6.805,-1.28 32.547,-6.18 65.609,-13.07 98.84,-9.9"
         style="fill:#742c1c;fill-opacity:1;fill-rule:nonzero;stroke:none"
         id="path138" />
      <path
         d="m 580.152,1461.25 c 8.457,17.5 10.286,27.33 22.676,41.41 16.485,18.74 44.457,20.46 66.934,7.99 25.488,-14.15 41.98,-42.87 50.621,-69.79 6.734,-21 9.855,-43.4 20.297,-62.84 4.508,-8.38 10.593,-16.3 19.011,-20.75 8.418,-4.45 19.504,-4.74 26.973,1.16 15.793,12.46 13.141,42.3 11.211,59.58 -3.711,33.26 -14.492,66.35 -32.074,94.72 -13.988,22.57 -32.281,42.14 -54.746,56.43 -19.547,12.43 -43.559,20.72 -65.864,14.47 -30.636,-8.59 -46.925,-39.89 -56.492,-67.8 -5.414,-15.79 -11.328,-32.81 -11.82,-49.57 -0.223,-7.69 2.625,-6.36 3.273,-5.01"
         style="fill:#5c1a15;fill-opacity:1;fill-rule:nonzero;stroke:none"
         id="path140" />
    </g>
  </g>
</svg>
