<?xml version="1.0" standalone="no"?>
<!DOCTYPE svg PUBLIC "-//W3C//DTD SVG 20010904//EN"
 "http://www.w3.org/TR/2001/REC-SVG-20010904/DTD/svg10.dtd">
<svg version="1.0" xmlns="http://www.w3.org/2000/svg"
 width="512.000000pt" height="512.000000pt" viewBox="0 0 512.000000 512.000000"
 preserveAspectRatio="xMidYMid meet">

<g transform="translate(0.000000,512.000000) scale(0.100000,-0.100000)"
fill="#000000" stroke="none">
<path d="M2154 4586 c-47 -21 -58 -59 -50 -176 13 -209 52 -339 164 -550 90
-170 117 -226 143 -300 26 -72 49 -181 49 -231 l0 -39 -1039 0 c-660 0 -1058
-4 -1092 -10 -157 -30 -289 -162 -319 -320 -15 -77 -14 -2042 1 -2112 34 -163
169 -291 336 -318 78 -13 4348 -13 4426 0 167 27 302 155 336 318 15 70 16
2035 1 2113 -30 157 -162 289 -319 319 -34 6 -433 10 -1097 10 -574 0 -1044 1
-1044 3 0 1 -5 41 -11 87 -22 184 -62 294 -191 531 -117 217 -141 300 -164
562 -9 101 -58 143 -130 113z m2649 -1500 c49 -24 89 -64 113 -113 18 -37 19
-77 19 -1068 l0 -1030 -22 -40 c-27 -51 -68 -90 -115 -109 -33 -14 -271 -16
-2238 -16 -1967 0 -2205 2 -2238 16 -47 19 -88 58 -115 109 l-22 40 -3 994
c-2 628 1 1013 7 1047 18 94 85 166 174 184 23 4 1023 7 2222 6 2119 -1 2181
-2 2218 -20z"/>
<path d="M609 2801 l-29 -29 0 -215 c0 -293 -14 -281 304 -275 l188 3 23 27
c32 37 38 87 33 285 -4 179 -9 201 -55 222 -15 7 -105 11 -229 11 l-206 0 -29
-29z"/>
<path d="M1308 2814 c-43 -23 -50 -66 -46 -281 l3 -193 28 -27 27 -28 215 0
215 0 27 28 28 27 3 202 c3 220 -2 249 -49 273 -41 22 -412 21 -451 -1z"/>
<path d="M1995 2819 c-44 -21 -49 -46 -53 -222 -5 -198 1 -248 33 -285 l23
-27 188 -3 c216 -4 247 0 280 35 24 26 24 28 24 240 l0 215 -29 29 -29 29
-209 -1 c-116 0 -217 -5 -228 -10z"/>
<path d="M2659 2801 l-29 -29 0 -215 c0 -293 -13 -281 302 -275 256 4 252 -1
246 298 -3 197 -8 218 -55 239 -15 7 -105 11 -229 11 l-206 0 -29 -29z"/>
<path d="M3358 2814 c-43 -23 -50 -66 -46 -281 l3 -193 28 -27 27 -28 209 0
c229 0 252 5 271 58 14 43 13 399 -2 432 -22 50 -49 55 -265 55 -155 -1 -204
-4 -225 -16z"/>
<path d="M4031 2804 l-31 -26 0 -218 c0 -217 0 -219 24 -247 l24 -28 188 -3
c213 -4 247 0 280 33 24 24 24 26 24 240 l0 217 -29 29 -29 29 -210 0 -210 0
-31 -26z"/>
<path d="M633 2136 c-17 -8 -36 -23 -42 -35 -7 -12 -11 -99 -11 -230 0 -207 0
-210 24 -238 l24 -28 381 -3 c430 -3 431 -3 451 66 7 23 10 108 8 229 l-3 193
-28 27 -27 28 -373 2 c-301 2 -378 0 -404 -11z"/>
<path d="M1674 2143 c-12 -2 -32 -15 -45 -29 -23 -25 -24 -31 -27 -217 -2
-123 0 -206 8 -229 19 -65 40 -70 280 -66 277 4 254 -19 258 255 2 147 0 215
-9 236 -21 50 -56 57 -261 56 -101 -1 -193 -4 -204 -6z"/>
<path d="M2343 2135 c-17 -7 -36 -22 -42 -34 -7 -12 -11 -99 -11 -231 l0 -212
29 -29 29 -29 210 0 210 0 31 26 31 26 0 215 c0 134 -4 222 -11 235 -21 40
-67 48 -261 48 -133 -1 -192 -5 -215 -15z"/>
<path d="M3024 2136 c-50 -22 -56 -50 -52 -279 4 -274 -19 -251 258 -255 241
-4 261 1 280 66 7 23 10 108 8 229 l-3 193 -28 27 -27 28 -203 2 c-154 2 -209
0 -233 -11z"/>
<path d="M3724 2143 c-12 -2 -32 -15 -45 -29 -23 -25 -24 -31 -27 -217 -2
-121 1 -206 8 -229 20 -68 22 -68 445 -68 l377 0 29 29 29 29 0 212 c0 132 -4
219 -11 232 -24 45 -56 48 -431 47 -194 -1 -363 -4 -374 -6z"/>
<path d="M633 1446 c-17 -8 -36 -23 -42 -35 -7 -12 -11 -99 -11 -230 0 -207 0
-210 24 -238 l24 -28 221 0 221 0 27 28 28 27 0 215 0 215 -28 27 -27 28 -203
2 c-156 2 -209 0 -234 -11z"/>
<path d="M1313 1444 c-19 -10 -36 -28 -42 -46 -15 -41 -14 -386 0 -427 23 -65
-55 -61 1289 -61 1344 0 1266 -4 1289 61 6 19 11 107 11 216 0 211 -8 243 -60
262 -24 8 -366 11 -1244 11 -1080 0 -1214 -2 -1243 -16z"/>
<path d="M4060 1453 c-8 -3 -25 -15 -37 -26 -23 -20 -23 -25 -23 -242 l0 -222
26 -24 c26 -24 27 -24 246 -24 l220 0 24 28 c24 28 24 31 24 238 0 132 -4 218
-11 231 -22 40 -66 48 -266 47 -103 0 -195 -3 -203 -6z"/>
</g>
</svg>
